<mxfile host="app.diagrams.net" modified="2023-06-03T15:14:17.338Z" agent="Mozilla/5.0 (Macintosh; Intel Mac OS X 10_15_7) AppleWebKit/537.36 (KHTML, like Gecko) Chrome/114.0.0.0 Safari/537.36" etag="m7kk_EfRHECSybPs2dbr" version="21.3.7" type="github">
  <diagram id="C5RBs43oDa-KdzZeNtuy" name="Page-1">
    <mxGraphModel dx="1853" dy="639" grid="1" gridSize="10" guides="1" tooltips="1" connect="1" arrows="1" fold="1" page="1" pageScale="1" pageWidth="827" pageHeight="1169" math="0" shadow="0">
      <root>
        <mxCell id="WIyWlLk6GJQsqaUBKTNV-0" />
        <mxCell id="WIyWlLk6GJQsqaUBKTNV-1" parent="WIyWlLk6GJQsqaUBKTNV-0" />
        <mxCell id="kWgR9APQWtb4PBbkuq3c-31" style="edgeStyle=orthogonalEdgeStyle;rounded=0;orthogonalLoop=1;jettySize=auto;html=1;exitX=0.5;exitY=1;exitDx=0;exitDy=0;entryX=0.5;entryY=0;entryDx=0;entryDy=0;" edge="1" parent="WIyWlLk6GJQsqaUBKTNV-1" source="kWgR9APQWtb4PBbkuq3c-0" target="kWgR9APQWtb4PBbkuq3c-3">
          <mxGeometry relative="1" as="geometry" />
        </mxCell>
        <mxCell id="kWgR9APQWtb4PBbkuq3c-0" value="Input number of iterations (n)" style="rounded=1;whiteSpace=wrap;html=1;" vertex="1" parent="WIyWlLk6GJQsqaUBKTNV-1">
          <mxGeometry x="356" y="270" width="120" height="60" as="geometry" />
        </mxCell>
        <mxCell id="kWgR9APQWtb4PBbkuq3c-2" style="edgeStyle=orthogonalEdgeStyle;rounded=0;orthogonalLoop=1;jettySize=auto;html=1;entryX=0.45;entryY=0.017;entryDx=0;entryDy=0;entryPerimeter=0;" edge="1" parent="WIyWlLk6GJQsqaUBKTNV-1" source="kWgR9APQWtb4PBbkuq3c-1" target="kWgR9APQWtb4PBbkuq3c-0">
          <mxGeometry relative="1" as="geometry" />
        </mxCell>
        <mxCell id="kWgR9APQWtb4PBbkuq3c-1" value="Start" style="ellipse;whiteSpace=wrap;html=1;" vertex="1" parent="WIyWlLk6GJQsqaUBKTNV-1">
          <mxGeometry x="350" y="140" width="120" height="80" as="geometry" />
        </mxCell>
        <mxCell id="kWgR9APQWtb4PBbkuq3c-32" style="edgeStyle=orthogonalEdgeStyle;rounded=0;orthogonalLoop=1;jettySize=auto;html=1;exitX=0.5;exitY=1;exitDx=0;exitDy=0;entryX=0.5;entryY=0;entryDx=0;entryDy=0;" edge="1" parent="WIyWlLk6GJQsqaUBKTNV-1" source="kWgR9APQWtb4PBbkuq3c-3" target="kWgR9APQWtb4PBbkuq3c-4">
          <mxGeometry relative="1" as="geometry" />
        </mxCell>
        <mxCell id="kWgR9APQWtb4PBbkuq3c-3" value="Set current iteration = 0" style="rounded=1;whiteSpace=wrap;html=1;" vertex="1" parent="WIyWlLk6GJQsqaUBKTNV-1">
          <mxGeometry x="351" y="370" width="130" height="60" as="geometry" />
        </mxCell>
        <mxCell id="kWgR9APQWtb4PBbkuq3c-8" style="edgeStyle=orthogonalEdgeStyle;rounded=0;orthogonalLoop=1;jettySize=auto;html=1;exitX=1;exitY=0.5;exitDx=0;exitDy=0;" edge="1" parent="WIyWlLk6GJQsqaUBKTNV-1" source="kWgR9APQWtb4PBbkuq3c-4" target="kWgR9APQWtb4PBbkuq3c-6">
          <mxGeometry relative="1" as="geometry" />
        </mxCell>
        <mxCell id="kWgR9APQWtb4PBbkuq3c-10" style="edgeStyle=orthogonalEdgeStyle;rounded=0;orthogonalLoop=1;jettySize=auto;html=1;exitX=0.5;exitY=1;exitDx=0;exitDy=0;entryX=0.5;entryY=0;entryDx=0;entryDy=0;" edge="1" parent="WIyWlLk6GJQsqaUBKTNV-1" source="kWgR9APQWtb4PBbkuq3c-4" target="kWgR9APQWtb4PBbkuq3c-5">
          <mxGeometry relative="1" as="geometry" />
        </mxCell>
        <mxCell id="kWgR9APQWtb4PBbkuq3c-4" value="iteration &amp;lt; n" style="rhombus;whiteSpace=wrap;html=1;" vertex="1" parent="WIyWlLk6GJQsqaUBKTNV-1">
          <mxGeometry x="376" y="470" width="80" height="80" as="geometry" />
        </mxCell>
        <mxCell id="kWgR9APQWtb4PBbkuq3c-33" style="edgeStyle=orthogonalEdgeStyle;rounded=0;orthogonalLoop=1;jettySize=auto;html=1;exitX=0.5;exitY=1;exitDx=0;exitDy=0;entryX=0.5;entryY=0;entryDx=0;entryDy=0;" edge="1" parent="WIyWlLk6GJQsqaUBKTNV-1" source="kWgR9APQWtb4PBbkuq3c-5" target="kWgR9APQWtb4PBbkuq3c-13">
          <mxGeometry relative="1" as="geometry" />
        </mxCell>
        <mxCell id="kWgR9APQWtb4PBbkuq3c-5" value="Take input for x, x1, x2 and x3" style="rounded=1;whiteSpace=wrap;html=1;" vertex="1" parent="WIyWlLk6GJQsqaUBKTNV-1">
          <mxGeometry x="355" y="585" width="120" height="60" as="geometry" />
        </mxCell>
        <mxCell id="kWgR9APQWtb4PBbkuq3c-12" style="edgeStyle=orthogonalEdgeStyle;rounded=0;orthogonalLoop=1;jettySize=auto;html=1;exitX=1;exitY=0.5;exitDx=0;exitDy=0;entryX=0;entryY=0.5;entryDx=0;entryDy=0;" edge="1" parent="WIyWlLk6GJQsqaUBKTNV-1" source="kWgR9APQWtb4PBbkuq3c-6" target="kWgR9APQWtb4PBbkuq3c-7">
          <mxGeometry relative="1" as="geometry" />
        </mxCell>
        <mxCell id="kWgR9APQWtb4PBbkuq3c-6" value="print results" style="rounded=1;whiteSpace=wrap;html=1;" vertex="1" parent="WIyWlLk6GJQsqaUBKTNV-1">
          <mxGeometry x="570" y="480" width="120" height="60" as="geometry" />
        </mxCell>
        <mxCell id="kWgR9APQWtb4PBbkuq3c-7" value="Stop" style="ellipse;whiteSpace=wrap;html=1;" vertex="1" parent="WIyWlLk6GJQsqaUBKTNV-1">
          <mxGeometry x="750" y="470" width="120" height="80" as="geometry" />
        </mxCell>
        <mxCell id="kWgR9APQWtb4PBbkuq3c-9" value="No" style="text;html=1;align=center;verticalAlign=middle;resizable=0;points=[];autosize=1;strokeColor=none;fillColor=none;" vertex="1" parent="WIyWlLk6GJQsqaUBKTNV-1">
          <mxGeometry x="490" y="468" width="40" height="30" as="geometry" />
        </mxCell>
        <mxCell id="kWgR9APQWtb4PBbkuq3c-11" value="Yes" style="text;html=1;align=center;verticalAlign=middle;resizable=0;points=[];autosize=1;strokeColor=none;fillColor=none;" vertex="1" parent="WIyWlLk6GJQsqaUBKTNV-1">
          <mxGeometry x="350" y="548" width="40" height="30" as="geometry" />
        </mxCell>
        <mxCell id="kWgR9APQWtb4PBbkuq3c-15" style="edgeStyle=orthogonalEdgeStyle;rounded=0;orthogonalLoop=1;jettySize=auto;html=1;exitX=0.5;exitY=1;exitDx=0;exitDy=0;entryX=0.5;entryY=0;entryDx=0;entryDy=0;" edge="1" parent="WIyWlLk6GJQsqaUBKTNV-1" source="kWgR9APQWtb4PBbkuq3c-13" target="kWgR9APQWtb4PBbkuq3c-14">
          <mxGeometry relative="1" as="geometry" />
        </mxCell>
        <mxCell id="kWgR9APQWtb4PBbkuq3c-17" style="edgeStyle=orthogonalEdgeStyle;rounded=0;orthogonalLoop=1;jettySize=auto;html=1;exitX=0;exitY=0.5;exitDx=0;exitDy=0;entryX=1;entryY=0.5;entryDx=0;entryDy=0;" edge="1" parent="WIyWlLk6GJQsqaUBKTNV-1" source="kWgR9APQWtb4PBbkuq3c-13" target="kWgR9APQWtb4PBbkuq3c-16">
          <mxGeometry relative="1" as="geometry" />
        </mxCell>
        <mxCell id="kWgR9APQWtb4PBbkuq3c-13" value="x1 &amp;lt;= x &amp;lt;= x2" style="rhombus;whiteSpace=wrap;html=1;" vertex="1" parent="WIyWlLk6GJQsqaUBKTNV-1">
          <mxGeometry x="375" y="700" width="80" height="80" as="geometry" />
        </mxCell>
        <mxCell id="kWgR9APQWtb4PBbkuq3c-19" style="edgeStyle=orthogonalEdgeStyle;rounded=0;orthogonalLoop=1;jettySize=auto;html=1;entryX=1;entryY=0.5;entryDx=0;entryDy=0;" edge="1" parent="WIyWlLk6GJQsqaUBKTNV-1" source="kWgR9APQWtb4PBbkuq3c-14" target="kWgR9APQWtb4PBbkuq3c-18">
          <mxGeometry relative="1" as="geometry" />
        </mxCell>
        <mxCell id="kWgR9APQWtb4PBbkuq3c-23" style="edgeStyle=orthogonalEdgeStyle;rounded=0;orthogonalLoop=1;jettySize=auto;html=1;exitX=0.5;exitY=1;exitDx=0;exitDy=0;entryX=0.5;entryY=0;entryDx=0;entryDy=0;" edge="1" parent="WIyWlLk6GJQsqaUBKTNV-1" source="kWgR9APQWtb4PBbkuq3c-14" target="kWgR9APQWtb4PBbkuq3c-21">
          <mxGeometry relative="1" as="geometry" />
        </mxCell>
        <mxCell id="kWgR9APQWtb4PBbkuq3c-14" value="x2 &amp;lt; x &amp;lt;= x3" style="rhombus;whiteSpace=wrap;html=1;" vertex="1" parent="WIyWlLk6GJQsqaUBKTNV-1">
          <mxGeometry x="375" y="820" width="80" height="80" as="geometry" />
        </mxCell>
        <mxCell id="kWgR9APQWtb4PBbkuq3c-29" style="edgeStyle=orthogonalEdgeStyle;rounded=0;orthogonalLoop=1;jettySize=auto;html=1;" edge="1" parent="WIyWlLk6GJQsqaUBKTNV-1" source="kWgR9APQWtb4PBbkuq3c-16">
          <mxGeometry relative="1" as="geometry">
            <mxPoint x="-100" y="740" as="targetPoint" />
          </mxGeometry>
        </mxCell>
        <mxCell id="kWgR9APQWtb4PBbkuq3c-16" value="set f(x) = ((x-x1)/(x2-x1)) * (x3-x1)" style="rounded=1;whiteSpace=wrap;html=1;" vertex="1" parent="WIyWlLk6GJQsqaUBKTNV-1">
          <mxGeometry x="-10" y="710" width="240" height="60" as="geometry" />
        </mxCell>
        <mxCell id="kWgR9APQWtb4PBbkuq3c-28" style="edgeStyle=orthogonalEdgeStyle;rounded=0;orthogonalLoop=1;jettySize=auto;html=1;exitX=0;exitY=0.5;exitDx=0;exitDy=0;" edge="1" parent="WIyWlLk6GJQsqaUBKTNV-1" source="kWgR9APQWtb4PBbkuq3c-18">
          <mxGeometry relative="1" as="geometry">
            <mxPoint x="-100" y="860" as="targetPoint" />
          </mxGeometry>
        </mxCell>
        <mxCell id="kWgR9APQWtb4PBbkuq3c-18" value="set f(x) = ((x-x2)/(x3-x2)) * (x2-x1)" style="rounded=1;whiteSpace=wrap;html=1;" vertex="1" parent="WIyWlLk6GJQsqaUBKTNV-1">
          <mxGeometry x="-10" y="830" width="240" height="60" as="geometry" />
        </mxCell>
        <mxCell id="kWgR9APQWtb4PBbkuq3c-27" style="edgeStyle=orthogonalEdgeStyle;rounded=0;orthogonalLoop=1;jettySize=auto;html=1;" edge="1" parent="WIyWlLk6GJQsqaUBKTNV-1" source="kWgR9APQWtb4PBbkuq3c-20" target="kWgR9APQWtb4PBbkuq3c-26">
          <mxGeometry relative="1" as="geometry" />
        </mxCell>
        <mxCell id="kWgR9APQWtb4PBbkuq3c-20" value="set f(x) = x3" style="rounded=1;whiteSpace=wrap;html=1;" vertex="1" parent="WIyWlLk6GJQsqaUBKTNV-1">
          <mxGeometry x="-10" y="940" width="240" height="60" as="geometry" />
        </mxCell>
        <mxCell id="kWgR9APQWtb4PBbkuq3c-22" style="edgeStyle=orthogonalEdgeStyle;rounded=0;orthogonalLoop=1;jettySize=auto;html=1;exitX=0;exitY=0.5;exitDx=0;exitDy=0;entryX=1;entryY=0.5;entryDx=0;entryDy=0;" edge="1" parent="WIyWlLk6GJQsqaUBKTNV-1" source="kWgR9APQWtb4PBbkuq3c-21" target="kWgR9APQWtb4PBbkuq3c-20">
          <mxGeometry relative="1" as="geometry" />
        </mxCell>
        <mxCell id="kWgR9APQWtb4PBbkuq3c-21" value="x &amp;gt; x3" style="rhombus;whiteSpace=wrap;html=1;" vertex="1" parent="WIyWlLk6GJQsqaUBKTNV-1">
          <mxGeometry x="375" y="930" width="80" height="80" as="geometry" />
        </mxCell>
        <mxCell id="kWgR9APQWtb4PBbkuq3c-24" value="No" style="text;html=1;align=center;verticalAlign=middle;resizable=0;points=[];autosize=1;strokeColor=none;fillColor=none;" vertex="1" parent="WIyWlLk6GJQsqaUBKTNV-1">
          <mxGeometry x="410" y="778" width="40" height="30" as="geometry" />
        </mxCell>
        <mxCell id="kWgR9APQWtb4PBbkuq3c-25" value="No" style="text;html=1;align=center;verticalAlign=middle;resizable=0;points=[];autosize=1;strokeColor=none;fillColor=none;" vertex="1" parent="WIyWlLk6GJQsqaUBKTNV-1">
          <mxGeometry x="410" y="900" width="40" height="30" as="geometry" />
        </mxCell>
        <mxCell id="kWgR9APQWtb4PBbkuq3c-35" style="edgeStyle=orthogonalEdgeStyle;rounded=0;orthogonalLoop=1;jettySize=auto;html=1;exitX=0.5;exitY=0;exitDx=0;exitDy=0;entryX=0.5;entryY=1;entryDx=0;entryDy=0;" edge="1" parent="WIyWlLk6GJQsqaUBKTNV-1" source="kWgR9APQWtb4PBbkuq3c-26" target="kWgR9APQWtb4PBbkuq3c-34">
          <mxGeometry relative="1" as="geometry" />
        </mxCell>
        <mxCell id="kWgR9APQWtb4PBbkuq3c-26" value="iteration = iteration + 1" style="rounded=1;whiteSpace=wrap;html=1;" vertex="1" parent="WIyWlLk6GJQsqaUBKTNV-1">
          <mxGeometry x="-160" y="640" width="120" height="60" as="geometry" />
        </mxCell>
        <mxCell id="kWgR9APQWtb4PBbkuq3c-36" style="edgeStyle=orthogonalEdgeStyle;rounded=0;orthogonalLoop=1;jettySize=auto;html=1;exitX=0.5;exitY=0;exitDx=0;exitDy=0;entryX=0;entryY=0.5;entryDx=0;entryDy=0;" edge="1" parent="WIyWlLk6GJQsqaUBKTNV-1" source="kWgR9APQWtb4PBbkuq3c-34" target="kWgR9APQWtb4PBbkuq3c-4">
          <mxGeometry relative="1" as="geometry" />
        </mxCell>
        <mxCell id="kWgR9APQWtb4PBbkuq3c-34" value="Calculate max, min and average f(x)" style="rounded=1;whiteSpace=wrap;html=1;" vertex="1" parent="WIyWlLk6GJQsqaUBKTNV-1">
          <mxGeometry x="-160" y="533" width="120" height="60" as="geometry" />
        </mxCell>
      </root>
    </mxGraphModel>
  </diagram>
</mxfile>
